<?xml version="1.0" encoding="UTF-8" standalone="no"?>
<svg
   version="1.1"
   width="512"
   height="512"
   style="clip-rule:evenodd;fill-rule:evenodd;image-rendering:optimizeQuality;shape-rendering:geometricPrecision;text-rendering:geometricPrecision"
   id="svg64"
   viewBox="0 0 512 512"
   xmlns="http://www.w3.org/2000/svg"
   xmlns:svg="http://www.w3.org/2000/svg">
  <defs
     id="defs64" />
  <path
     fill="#0b0b0b"
     d="M 360.69708,0.31996562 C 309.17878,0.52319602 230.22662,1.0080456 185.2478,1.395635 140.26897,1.7832243 86.111695,2.1838786 64.898281,2.2854936 17.780724,2.5104988 17.508125,2.5540482 8.7226111,11.234888 -0.58635101,20.432516 -0.15135277,15.968705 0.09224622,100.20334 0.96514267,401.30948 1.7655395,487.63448 3.7259314,491.39423 c 0.4639982,0.89422 0.8467968,1.93068 0.8496968,2.30376 0.0145,2.37054 8.9421128,13.54676 10.8256558,13.54676 0.374098,0 0.767046,0.196 0.874345,0.4355 0.25665,0.58066 3.874385,2.4678 4.734233,2.4707 0.374096,0 1.461592,0.42388 2.418588,0.9363 2.116992,1.13374 145.28941,1.23536 239.82903,0.1698 30.46436,-0.34404 92.9736,-0.8376 138.90944,-1.09744 69.69832,-0.39484 84.0953,-0.6126 86.99963,-1.31374 4.07738,-0.9842 7.24998,-2.2486 7.24998,-2.88876 0,-0.2497 0.2726,-0.45436 0.60464,-0.45436 1.41518,0 7.10206,-5.04012 9.14946,-8.10746 5.83912,-8.75342 6.18278,-11.82653 5.65354,-50.50275 -0.23346,-17.10618 -0.6699,-86.23498 -0.9686,-153.62038 -1.0092,-227.491731 -1.39782,-266.445186 -2.70136,-271.235618 -2.20398,-8.09002 -7.77196,-15.3119563 -14.13454,-18.3299272 -9.01315,-4.27509623 4.3181,-3.93686284 -133.32259,-3.3881408 m 126.1843,9.5736025 c 0.61914,0.4688815 1.46738,0.8608255 1.88495,0.8709875 1.26152,0.03048 5.9102,3.886055 7.87928,6.533856 3.61628,4.863012 3.4307,2.280535 3.92804,54.454127 1.0672,111.826063 1.392,176.840913 0.8874,177.524633 -0.4002,0.54292 -6.90488,0.76068 -27.00033,0.90728 -14.56084,0.106 -68.19468,0.53276 -119.18662,0.9494 -67.16372,0.54726 -93.09686,0.58064 -94.10462,0.1204 l -1.392,-0.63438 v -84.3521 c 0,-46.39459 -0.29,-100.105479 -0.6525,-119.358654 -0.6235,-33.190424 -0.60318,-35.063046 0.36832,-36.138716 1.24264,-1.3732563 2.02564,-1.3834179 136.61262,-1.5910033 78.0677,-0.120486 89.788,-0.027582 90.76966,0.7142098 M 249.36074,10.526485 c 1.01064,1.219383 0.89754,-8.6997113 1.41228,122.887605 l 0.45966,117.69943 -1.38474,0.30484 c -0.7627,0.167 -31.14008,0.44276 -67.50593,0.6126 -36.36587,0.1684 -89.924289,0.46162 -119.019873,0.65034 l -52.900133,0.34258 -0.347998,-1.38632 C 9.5186579,249.4209 8.8270107,154.74893 8.8763103,87.719189 l 0.0464,-61.549773 1.6892427,-3.338784 c 1.797993,-3.556531 5.836226,-7.65743 9.090013,-9.232465 6.181326,-2.990389 0.587248,-2.810385 88.846934,-2.894581 45.05132,-0.04355 90.26504,-0.255489 100.473,-0.471785 35.30592,-0.7446937 39.50218,-0.7142091 40.33884,0.294684 m 178.61028,46.002646 c -0.7975,0.53711 -1.5805,1.132284 -1.74,1.318096 -0.1594,0.18872 -0.812,0.551624 -1.45,0.80421 -0.7888,0.312104 -0.9164,0.551626 -0.40164,0.743244 0.4176,0.15532 1.24264,-0.15532 1.83278,-0.690984 3.00148,-2.720384 11.03882,0.683726 11.03882,4.677202 0,0.451462 0.2436,0.821632 0.54084,0.821632 0.29724,0 0.7192,0.587916 0.9367,1.30648 0.2175,0.718566 1.01934,2.138274 1.77914,3.154426 0.76126,1.017604 1.38328,2.096176 1.38328,2.396668 0,0.30194 0.3915,0.87389 0.87,1.27164 2.7231,2.264568 -0.58144,10.45185 -4.2195,10.45185 -0.31172,0 -0.89316,0.391942 -1.29046,0.870986 -2.291,2.763934 -8.36646,0.12484 -10.50376,-4.563974 -0.7366,-1.617132 -1.67764,-3.182006 -3.1958,-5.31883 -0.6757,-0.952278 -1.41084,-2.318276 -1.63268,-3.036842 -0.2233,-0.718564 -0.638,-1.30648 -0.92076,-1.30648 -0.28274,0 -0.6931,-0.956634 -0.9135,-2.12521 -0.43934,-2.350214 1.0614,-6.004006 2.4679,-6.004006 0.42774,0 0.77864,-0.383234 0.77864,-0.852114 0,-1.210674 -1.70664,-0.44856 -3.46548,1.546002 -1.80234,2.04827 -2.3635,2.036658 -5.32584,-0.11324 -3.59162,-2.604252 -8.4549,-2.190534 -11.95808,1.016152 -0.43646,0.399202 -1.1455,0.725824 -1.57324,0.725824 -0.4292,0 -0.86712,0.20323 -0.9744,0.452912 -0.2581,0.60679 -11.83486,7.676302 -12.56856,7.676302 -0.319,0 -0.6641,0.222102 -0.7714,0.49356 -0.1058,0.27291 -1.28468,1.122122 -2.62014,1.88714 -1.33544,0.766468 -5.25042,3.13265 -8.69996,5.256408 -7.77632,4.79043 -10.09196,6.1753 -11.20264,6.699344 -0.4785,0.226456 -1.131,0.638724 -1.45,0.914536 -0.319,0.275812 -3.1813,2.119402 -6.36114,4.093642 -7.14556,4.43913 -8.5796,6.30885 -8.32296,10.845243 0.174,3.03104 0.1088,3.20814 -1.26584,3.39249 -2.5317,0.33969 -2.7202,1.25568 -0.261,1.26729 2.0764,0.0146 4.90098,1.80585 4.90098,3.12104 0,0.19162 1.827,3.31991 4.05996,6.95048 5.9798,9.71877 5.56076,11.93253 -3.08414,16.31069 l -3.18706,1.61423 -2.36786,-1.33262 c -1.30208,-0.73162 -2.51862,-1.8073 -2.70422,-2.3894 -0.1842,-0.58066 -0.56986,-1.05825 -0.85696,-1.05825 -0.6003,0 -0.0522,1.71439 0.8584,2.68699 0.3364,0.36001 0.99616,1.20923 1.4645,1.88714 1.3572,1.95972 5.79854,1.37326 8.13738,-1.07711 0.1596,-0.16694 1.23684,-0.78389 2.39248,-1.37327 1.15854,-0.58791 2.93624,-1.82907 3.95268,-2.75812 2.07204,-1.8944 2.52154,-2.01053 3.61774,-0.93921 2.83474,2.77263 7.18762,3.63492 9.50182,1.88278 0.61912,-0.46888 1.56018,-0.86082 2.09232,-0.87098 0.53072,-0.0146 1.05272,-0.2221 1.16002,-0.47179 0.26824,-0.63001 11.84934,-7.6763 12.61784,-7.6763 0.34364,0 0.6235,-0.25695 0.6235,-0.56905 0,-0.31355 0.6525,-0.73453 1.45,-0.93486 0.7975,-0.20033 1.44996,-0.59517 1.44996,-0.88115 0,-0.28597 0.783,-0.51824 1.74002,-0.51824 1.90818,0 2.21848,-0.62275 0.86998,-1.74197 -0.4785,-0.39775 -0.86998,-1.08293 -0.86998,-1.52278 0,-0.43985 -0.261,-0.7984 -0.58,-0.7984 -0.319,0 -0.58002,0.50372 -0.58002,1.12067 0,0.98131 -4.5196,4.22864 -10.58494,7.60372 -0.5568,0.31065 -1.4703,0.82744 -2.03,1.1497 -0.5568,0.32082 -1.40648,0.75921 -1.88498,0.9726 -0.47852,0.21485 -1.00052,0.54582 -1.16,0.73598 -2.15758,2.57813 -8.39838,3.17475 -11.8508,1.13519 -1.70228,-1.00454 -5.54768,-5.63528 -5.54768,-6.67756 0,-0.15968 -0.9686,-1.78117 -2.15324,-3.60009 -2.32144,-3.56814 -2.5317,-3.9267 -5.29538,-8.98568 -2.92318,-5.35222 -2.10684,-10.376363 2.14456,-13.224491 1.16286,-0.778082 2.24458,-1.585198 2.40408,-1.792782 0.1594,-0.207586 1.33398,-0.94357 2.60998,-1.640362 a 87.130145,87.229381 0 0 0 4.06,-2.370536 c 0.95698,-0.608238 2.78398,-1.669392 4.05996,-2.360374 1.276,-0.690984 2.4505,-1.416808 2.60998,-1.61423 0.34802,-0.428236 2.17066,-1.588102 3.77,-2.39957 0.638,-0.323718 1.943,-1.103252 2.9,-1.734718 0.957,-0.630014 2.1315,-1.320996 2.60998,-1.537292 0.4785,-0.214844 1.6472,-0.93631 2.5984,-1.602618 a 46.740558,46.793794 0 0 1 5.23158,-3.22846 c 0.638,-0.33678 1.94298,-1.135186 2.89996,-1.77391 0.95702,-0.637272 2.19676,-1.316642 2.755,-1.50971 0.55826,-0.19306 1.015,-0.551626 1.015,-0.796954 0,-0.245328 0.45676,-0.603886 1.015,-0.796954 0.55824,-0.19306 1.798,-0.870988 2.755,-1.509712 0.95698,-0.638722 2.26198,-1.428418 2.89998,-1.75649 0.638,-0.328072 2.0735,-1.161316 3.19,-1.850848 5.07496,-3.135554 11.46944,-0.706952 14.79718,5.623674 0.50314,0.958088 1.42098,2.525864 2.04158,3.48395 0.6206,0.958086 1.30356,2.133918 1.5196,2.612962 0.2146,0.479042 0.93524,1.64907 1.6008,2.60135 4.42684,6.32482 5.78256,10.679756 4.32098,13.887892 -1.4297,3.144264 -4.32388,1.320998 -3.64528,-2.297956 0.2755,-1.480678 -0.21896,-2.724738 -2.78834,-6.980962 -1.7197,-2.848128 -3.31034,-5.569966 -3.53364,-6.049008 -0.22332,-0.479044 -0.85986,-1.551808 -1.41376,-2.380698 a 128.01997,128.16579 0 0 1 -2.45918,-3.91654 c -0.7975,-1.320998 -1.6907,-2.405376 -1.98648,-2.408282 -0.29146,0 -0.9918,-0.420976 -1.5544,-0.92905 -0.9918,-0.900022 -4.56894,-0.708404 -4.58634,0.246778 0,0.211942 -1.11216,0.905828 -2.46498,1.540196 -1.3514,0.63437 -2.58824,1.300676 -2.74774,1.483582 -0.1594,0.18146 -4.72698,3.002004 -10.14996,6.268206 -5.42298,3.266202 -10.25148,6.19272 -10.72996,6.503372 -0.4785,0.312104 -1.26148,0.743242 -1.73998,0.958086 -0.47852,0.213392 -1.0005,0.548722 -1.16002,0.746146 -0.1594,0.19598 -3.03048,1.99456 -6.37996,3.994928 a 782.09345,782.98421 0 0 0 -6.95996,4.18945 c -0.4785,0.301942 -1.26152,0.725822 -1.74,0.939214 -0.4785,0.214844 -1.0005,0.541464 -1.16,0.728726 -0.1594,0.18582 -1.334,1.016152 -2.61,1.840686 -4.31082,2.794416 -4.66606,6.324819 -1.13098,11.260419 0.6873,0.95808 2.96958,4.63074 5.07206,8.15824 5.49114,9.21796 7.11224,9.75797 14.61886,4.88769 0.957,-0.6213 2.1315,-1.30503 2.60998,-1.52132 0.4785,-0.21485 1.6472,-0.93631 2.5984,-1.60262 2.01838,-1.4168 3.72212,-2.45618 4.94158,-3.01942 0.4785,-0.22065 1.31804,-0.78679 1.86614,-1.25712 0.5568,-0.47905 1.54134,-0.71131 2.233,-0.53131 1.12952,0.29614 1.20348,0.15968 0.83952,-1.52423 -0.83372,-3.8396 -0.98018,-9.28472 -0.29142,-10.78572 0.38278,-0.83325 1.10922,-2.428603 1.61526,-3.546371 1.01936,-2.254404 5.2229,-6.967898 6.21178,-6.967898 0.34802,0 0.93816,-0.304846 1.31082,-0.67792 1.87048,-1.872622 12.2452,-3.16749 13.18478,-1.644714 0.1972,0.319364 0.9309,0.583562 1.6298,0.586466 1.38618,0 5.62308,3.137006 7.79226,5.758678 9.43512,11.401219 0.8352,29.076459 -14.14758,29.076459 -4.2137,0 -11.8044,-2.67393 -11.8044,-4.15896 0,-0.26856 -0.45676,-0.4776 -1.01502,-0.46453 -2.31418,0.0537 6.119,5.78335 8.51148,5.78335 0.9193,0 2.30838,1.32971 5.28378,5.05608 0.3074,0.38614 0.55968,0.95229 0.55968,1.26004 0,0.30629 0.3625,1.29776 0.80622,2.20214 2.25618,4.60317 3.28278,12.48706 2.18078,16.74039 l -1.12228,4.35493 c -1.4616,5.69335 -7.91118,14.57017 -11.8073,16.24827 -0.754,0.32371 -1.75886,0.82017 -2.23736,1.10325 -6.10012,3.60878 -15.75418,4.7135 -20.4101,2.33425 -3.0914,-1.57794 -2.1431,-2.2457 3.21316,-2.25732 3.69026,-0.0146 4.089,-0.13646 5.655,-1.81165 l 1.68198,-1.8044 v -9.25713 c 0,-11.34317 -0.36684,-12.40577 -4.49062,-13.02853 -1.51816,-0.22936 -18.81078,-0.24677 -38.4292,-0.0377 l -35.66986,0.38032 -1.305,1.48504 c -2.09814,2.38795 -2.00534,20.23594 0.116,22.52954 l 1.4239,1.53584 h 9.92522 c 10.8851,0 11.46798,0.14516 13.36894,3.33152 0.71918,1.20196 2.3084,3.51589 3.53364,5.14174 2.62014,3.47959 2.63752,3.60152 0.76704,5.37834 -2.24748,2.13537 -2.21848,16.66199 0.0392,19.62625 l 1.47898,1.9423 h 45.22968 c 52.73918,0 51.08184,0.1988 50.88028,-6.09692 -0.0638,-2.01632 -0.1044,-2.08165 -0.3045,-0.49936 -0.1464,1.17728 -0.98598,2.51424 -2.36928,3.77428 l -2.14164,1.951 h -43.55928 c -52.82474,0 -48.37324,1.0394 -48.37324,-11.3025 V 188.446 l 1.88498,-2.00327 1.88498,-2.00618 41.17984,-0.0653 c 53.9369,-0.0856 48.1833,-0.26128 49.73916,1.51553 0.71484,0.81872 1.46448,2.19197 1.66748,3.04845 0.3335,1.42551 0.36974,1.38632 0.41036,-0.47179 0.032,-1.44294 -0.43936,-2.59844 -1.6269,-3.98911 -1.61964,-1.89731 -1.57614,-4.72076 0.0724,-4.72076 a 0.50169795,0.50226935 0 0 0 0.4872,-0.51388 c 0,-0.28307 1.044,-2.08021 2.32,-3.99202 1.27598,-1.91473 2.31998,-3.66832 2.31998,-3.89913 0,-0.23081 0.41326,-1.37325 0.91786,-2.54037 0.50604,-1.16568 1.28902,-2.97588 1.73998,-4.02687 0.4524,-1.04808 0.8265,-2.48522 0.83084,-3.19362 0,-0.70695 0.38426,-2.33134 0.8439,-3.60879 1.1716,-3.25169 1.1716,-19.97465 0,-23.22634 -0.45964,-1.27745 -0.841,-2.90183 -0.8439,-3.60878 -0.014,-1.3718 -0.90914,-3.64363 -3.56988,-9.02488 -2.30258,-4.65253 -2.88258,-5.64691 -4.70378,-8.0639 -0.87724,-1.16131 -1.595,-2.28779 -1.595,-2.49683 0,-0.21339 -0.7482,-1.18744 -1.66314,-2.1673 -2.34464,-2.51135 -4.29198,-12.571253 -2.6564,-13.718053 1.363,-0.958086 2.57956,-3.73073 2.57956,-5.889328 0,-2.072948 0.1768,-2.370536 1.59498,-2.678284 2.0764,-0.45001 3.9005,-1.323902 7.10496,-3.396852 6.68304,-4.325904 7.2297,-6.236268 3.48,-12.179306 -1.276,-2.022142 -2.31998,-3.976056 -2.31998,-4.34042 0,-0.36291 -0.25664,-0.663404 -0.5684,-0.663404 -0.3132,0 -0.7337,-0.653238 -0.9338,-1.451644 -0.2001,-0.798404 -0.5365,-1.451644 -0.7482,-1.451644 -0.21316,0 -0.88738,-0.979862 -1.50074,-2.177468 -2.78688,-5.446574 -6.20018,-7.195808 -9.5888,-4.915274 m -322.55549,0.5226 c -1.6878,0.27291 -4.36449,2.522962 -5.891329,4.953016 -0.822148,1.306482 -0.993246,3.092006 -1.000498,10.451848 -0.0144,10.538948 -0.1624,10.959924 -3.249436,9.03359 -1.238294,-0.772276 -2.643338,-1.585196 -3.121836,-1.804396 -0.478498,-0.22065 -2.044494,-1.081474 -3.479988,-1.913268 -8.989962,-5.208504 -10.276108,-5.597546 -12.775898,-3.867184 -2.37074,1.64036 -3.285686,2.941034 -7.26882,10.329908 -2.14599,3.981866 -4.448582,8.045022 -5.756474,10.16152 -0.68875,1.117768 -1.435496,2.42425 -1.652994,2.903292 -0.2204,0.479044 -1.196246,2.177468 -2.169192,3.774281 -0.971496,1.59681 -2.069142,3.62185 -2.438892,4.5001 -0.369748,0.87824 -0.875794,1.59681 -1.125192,1.59681 -0.247952,0 -0.4524,0.37307 -0.4524,0.82889 0,0.45727 -0.32625,1.17873 -0.724998,1.60697 -5.099627,5.45819 -3.604684,12.98787 3.172588,15.98261 1.206396,0.5313 2.192392,1.17729 2.192392,1.43714 0,0.25694 0.469798,0.46743 1.043994,0.46743 0.5742,0 1.333996,0.29177 1.690694,0.64743 0.820696,0.82163 2.90289,2.03375 4.92708,2.867 1.676194,0.69098 2.821688,2.95555 1.684894,3.33443 -0.366848,0.12194 -1.035298,0.59082 -1.486244,1.04227 -0.4495,0.45002 -1.004848,0.81874 -1.233948,0.81874 -0.869994,0 -12.197348,7.1871 -13.441442,8.52841 -1.806694,1.94812 -1.750144,5.5961 0.13776,8.94505 0.793146,1.40809 1.62399,2.93813 1.845842,3.4012 0.359596,0.7476 3.999082,7.01727 5.411378,9.31957 1.289044,2.10198 7.44572,12.67287 8.456366,14.51646 0.613346,1.11776 1.264394,2.16295 1.449994,2.32262 0.1856,0.15968 0.962796,1.55908 1.72839,3.11088 3.010188,6.09691 8.317166,8.421 12.145152,5.31884 0.478498,-0.38759 1.261494,-0.8855 1.739992,-1.10615 0.478498,-0.22065 1.391996,-0.72003 2.029994,-1.11197 11.93925,-7.30758 11.559352,-7.38887 11.704352,2.56215 0.237798,16.31215 0.03624,16.19457 27.506379,16.19457 29.12459,0 29.71039,-0.3455 29.47839,-17.39508 -0.116,-8.52116 -0.39875,-8.35857 7.11803,-4.14299 1.37023,0.76937 3.14503,1.76229 3.94251,2.20795 0.79751,0.44565 2.494,1.43713 3.77,2.20649 5.74052,3.45493 10.08616,0.91165 14.39845,-8.42534 0.22037,-0.47905 0.95264,-1.78552 1.62399,-2.9033 0.6757,-1.11776 2.15468,-3.73072 3.28858,-5.80657 1.13534,-2.07585 2.53604,-4.55816 3.11314,-5.51625 0.57855,-0.95809 1.3079,-2.26458 1.62254,-2.9033 0.3132,-0.63873 1.3514,-2.46779 2.3055,-4.0646 7.72264,-12.91965 7.97206,-17.70573 1.05269,-20.16046 -0.87724,-0.3121 -1.595,-0.80277 -1.595,-1.08873 0,-0.29034 -0.25664,-0.5255 -0.56984,-0.5255 -0.3132,0 -2.20544,-0.98712 -4.20499,-2.19199 -2.00099,-1.20776 -4.35289,-2.50843 -5.23012,-2.89167 -2.59984,-1.13809 -2.04449,-2.70006 1.74,-4.8906 1.83423,-1.0597 3.85697,-2.25005 4.49497,-2.64635 0.638,-0.39194 1.61675,-0.88115 2.17499,-1.08293 0.55825,-0.20177 1.015,-0.5705 1.015,-0.81727 0,-0.24678 0.58725,-0.60098 1.30499,-0.78389 7.84449,-2.00617 7.79373,-8.47326 -0.16528,-20.69611 a 15.978935,15.997134 0 0 1 -0.96137,-1.74198 c -0.2175,-0.47904 -1.3398,-2.438759 -2.49834,-4.354933 -1.16001,-1.91617 -2.28664,-3.875892 -2.5085,-4.354936 -0.22329,-0.479042 -0.92074,-1.654876 -1.55149,-2.61296 -0.63075,-0.958086 -1.32963,-2.13392 -1.55293,-2.612964 -0.2233,-0.479042 -1.7922,-3.164586 -3.48724,-5.97207 -1.6936,-2.80603 -3.0798,-5.330442 -3.0798,-5.61061 0,-2.897484 -6.83091,-4.434776 -10.44865,-2.348762 a 76.948285,77.035923 0 0 1 -3.47129,1.879882 c -0.79749,0.393396 -1.79509,1.045184 -2.21849,1.44729 -0.4205,0.403558 -1.1368,0.73308 -1.59498,0.73308 -0.45385,0 -0.8265,0.243878 -0.8265,0.541464 0,0.297588 -0.58725,0.720016 -1.305,0.937764 -0.71775,0.219198 -2.12714,1.013248 -3.13199,1.766652 -2.66364,1.997464 -2.98699,1.1468 -3.20449,-8.47761 -0.2088,-9.32537 -1.21799,-12.72077 -4.42247,-14.898238 -1.5022,-1.020508 -40.6158,-1.836332 -46.01267,-0.958086 m 42.75888,4.16332 c 4.78207,2.980228 5.45777,4.974788 5.45777,16.113264 0,5.960458 0.2175,9.522796 0.58,9.522796 0.319,0 0.58,-0.216296 0.58,-0.479042 0,-0.261296 1.10924,-1.059702 2.46498,-1.773912 1.35575,-0.711306 3.248,-1.785524 4.20499,-2.385054 12.9847,-8.13357 18.14378,-6.594826 25.28065,7.539848 0.725,1.437128 1.4732,2.74361 1.66315,2.903292 0.60608,0.513882 2.40553,3.51298 4.37897,7.30468 1.05705,2.029395 2.43454,4.418805 3.05949,5.305765 1.0585,1.4981 2.89419,5.31447 3.83669,7.96953 1.07734,3.0383 -3.88164,11.93688 -6.65258,11.93688 -0.44515,0 -6.65982,3.53766 -9.23646,5.25931 -0.4785,0.31936 -1.33689,0.73744 -1.90819,0.92906 -1.8038,0.60243 -0.5104,1.99892 3.93819,4.25332 0.63799,0.32372 1.55149,0.8318 2.02999,1.12793 0.4785,0.29759 1.26148,0.69969 1.73997,0.89567 2.7057,1.10325 7.88799,4.88332 8.61154,6.27981 2.74774,5.30577 2.43598,7.93325 -1.7516,14.79809 -1.2209,2.00326 -2.21994,3.75685 -2.21994,3.89911 0,0.14226 -1.1745,2.19634 -2.60999,4.56252 -1.4355,2.36764 -2.61,4.46237 -2.61,4.65688 0,0.19308 -1.04398,2.05844 -2.31998,4.1459 -1.27599,2.08747 -2.31999,3.99202 -2.31999,4.2301 0,1.01325 -5.40268,6.51207 -6.39738,6.51207 -0.59885,0 -1.75448,0.30485 -2.5665,0.67357 -1.13533,0.5197 -2.04157,0.50372 -3.94107,-0.0682 -3.25815,-0.98132 -3.34659,-1.01905 -5.36498,-2.32118 -1.9285,-1.24406 -3.44083,-2.10779 -7.10787,-4.0588 -1.35719,-0.72292 -2.61289,-1.54746 -2.78979,-1.83344 -1.39199,-2.25585 -1.86759,-0.16694 -2.09234,9.20489 -0.261,10.91203 -0.5046,11.66833 -4.74873,14.74873 l -2.28519,1.65486 h -19.12978 c -26.07379,0 -26.36089,-0.177 -26.76689,-16.5923 -0.11744,-4.7672 -0.2407,-8.90294 -0.2726,-9.19183 -0.0305,-0.28887 -0.53359,-0.0929 -1.116491,0.4355 -0.584348,0.5284 -1.232496,0.96099 -1.439846,0.96099 -0.208798,0 -2.01549,1.00164 -4.016482,2.22538 -9.86431,6.03885 -12.3612,6.71241 -16.86343,4.55526 -2.074942,-0.99728 -7.36017,-7.22629 -7.36017,-8.67649 0,-0.33387 -0.6525,-1.46325 -1.449994,-2.51135 -0.7975,-1.04517 -1.449996,-2.04101 -1.449996,-2.21085 0,-0.16984 -1.402144,-2.62457 -3.117488,-5.45384 -2.907236,-4.80348 -5.931924,-10.08602 -7.713968,-13.47707 -1.313694,-2.50409 -0.977296,-7.55146 0.666998,-9.9728 1.151296,-1.69843 9.243712,-7.44695 10.480558,-7.44695 0.1508,0 1.354292,-0.78389 2.67524,-1.74198 1.322392,-0.95808 2.754988,-1.74197 3.185634,-1.74197 0.862748,0 0.994698,-0.55888 0.339298,-1.45164 -0.234898,-0.31936 -2.18949,-1.48649 -4.341282,-2.5941 -2.15324,-1.1076 -3.914984,-2.21811 -3.914984,-2.46779 0,-0.24968 -0.372646,-0.45437 -0.827944,-0.45437 -0.45675,0 -1.174496,-0.32953 -1.594996,-0.73308 -0.421946,-0.40211 -1.476094,-1.04518 -2.343188,-1.42987 -3.926586,-1.73907 -7.067272,-11.29961 -4.545732,-13.83418 0.303046,-0.30339 1.500744,-2.37925 2.663638,-4.61478 1.162896,-2.23408 2.285192,-4.19381 2.493992,-4.35494 0.211698,-0.15968 0.868544,-1.20486 1.458694,-2.322629 a 238.93872,239.21086 0 0 1 6.852672,-12.060272 c 1.222344,-2.00182 2.231538,-3.830892 2.241688,-4.064608 0.03916,-0.86373 2.131492,-2.916358 4.490634,-4.407196 3.935284,-2.48812 8.235966,-1.769556 15.210438,2.54038 3.261036,2.014884 8.762317,5.215762 8.960967,5.215762 0.13486,0 0.32624,-4.529136 0.42629,-10.064258 0.203,-11.299608 0.63365,-12.507378 5.59263,-15.760518 l 2.13004,-1.397934 18.41492,-0.03338 18.41784,-0.03484 2.65929,1.656328 m 277.94209,2.459088 c -2.44612,2.00327 -2.44322,2.025044 0.80188,7.362746 1.21652,2.00327 2.21266,3.896216 2.21266,4.20977 0,0.313558 0.24362,0.570498 0.54086,0.570498 0.29724,0 0.71486,0.551626 0.928,1.223738 0.7975,2.517152 4.91114,5.008176 4.91114,2.97297 0,-0.24678 0.9135,-0.940666 2.03,-1.5431 2.63316,-1.419708 2.62014,-2.82345 -0.0652,-6.805314 -1.1513,-1.708588 -2.33738,-3.629114 -2.63464,-4.267838 -2.77528,-5.964812 -4.88358,-6.864832 -8.72464,-3.72347 m -317.4951,0.96388 c -3.44228,1.651972 -3.70908,2.801676 -3.70908,16.026166 0,13.506112 -0.12036,13.786278 -4.63998,10.848148 -2.254743,-1.464712 -8.694169,-5.167858 -11.198307,-6.440952 a 316.24806,316.60824 0 0 1 -4.639982,-2.403924 c -4.061432,-2.167306 -7.606668,-0.1263 -10.841606,6.243526 -0.797496,1.569228 -1.776242,3.203784 -2.17499,3.630568 -0.39875,0.428234 -0.724998,1.01615 -0.724998,1.30793 0,0.29033 -0.996146,2.165856 -2.21269,4.167676 -1.217996,2.003269 -2.39539,4.031219 -2.61724,4.510259 -0.2233,0.47905 -1.191894,2.17747 -2.15469,3.77428 -0.961346,1.59681 -1.986494,3.46653 -2.276492,4.15316 -0.289998,0.68808 -0.804746,1.42261 -1.142594,1.63165 -2.095242,1.29632 -0.17546,7.56597 2.836188,9.2615 0.617696,0.34839 2.24604,1.24841 3.620634,2.00327 1.373144,0.75195 2.62739,1.53584 2.786888,1.74197 0.1595,0.20324 1.551496,1.02486 3.094288,1.82181 1.542794,0.79842 4.218034,2.18764 5.944976,3.08912 4.400732,2.2936 4.189034,3.15006 -1.632692,6.58175 -2.624492,1.54746 -5.21273,3.07458 -5.750676,3.39395 -0.53795,0.31936 -2.209792,1.2339 -3.717786,2.0323 -9.61636,5.08657 -9.82371,7.16533 -2.008244,20.03271 1.162896,1.91617 2.304044,3.8759 2.53604,4.35494 0.23055,0.47905 0.73515,1.39358 1.122296,2.03231 0.385698,0.63872 1.615294,2.72909 2.73179,4.64526 1.116494,1.91618 2.34609,4.00654 2.731788,4.64526 0.38715,0.63873 0.896096,1.55327 1.130996,2.0323 2.203992,4.47979 7.03247,5.16207 12.37715,1.74924 1.835694,-1.17147 8.450564,-5.03721 9.279962,-5.4219 0.478498,-0.22355 1.652994,-0.9218 2.60999,-1.55325 5.350481,-3.53041 5.509981,-3.26621 5.512871,9.21795 0,18.00041 -1.48189,16.86811 22.18781,16.89279 l 18.41928,0.018 1.88064,-1.79859 1.8792,-1.79859 -0.1769,-11.53333 c -0.2465,-15.90858 -0.85694,-15.41357 10.61686,-8.61842 1.59499,0.94357 3.54669,1.98876 4.33837,2.31684 0.79025,0.33097 1.57324,0.78097 1.74,1.00162 0.1653,0.2192 1.56599,1.01761 3.11314,1.77391 5.26348,2.57378 8.54046,1.11778 11.9088,-5.2956 a 142.28792,142.44997 0 0 1 3.01889,-5.37108 c 0.9483,-1.59682 1.99374,-3.55073 2.32289,-4.34333 0.33058,-0.79115 0.7801,-1.57504 0.99905,-1.74197 0.2175,-0.16548 0.8207,-1.08583 1.33832,-2.04392 3.1668,-5.87626 4.83285,-8.84778 5.5245,-9.85522 2.95074,-4.30035 -0.8555,-9.44933 -10.23406,-13.84782 -0.4785,-0.22501 -2.17499,-1.19906 -3.76999,-2.16586 -1.59499,-0.96679 -3.62499,-2.03665 -4.50657,-2.37634 -1.35865,-0.52259 -2.74339,-2.03956 -2.74339,-3.00491 0,-0.14516 3.18709,-2.18763 7.08176,-4.53929 9.30751,-5.61787 9.25531,-5.58884 10.65746,-6.23192 5.11703,-2.34731 5.39397,-7.25242 0.8062,-14.30161 -0.6235,-0.95809 -1.31515,-2.13392 -1.53845,-2.61296 -0.22331,-0.47905 -1.74288,-3.09201 -3.37848,-5.806585 -1.63269,-2.714576 -3.16099,-5.327538 -3.39299,-5.80658 -0.232,-0.479044 -0.7366,-1.399388 -1.12374,-2.043918 a 1284.4294,1285.8924 0 0 1 -2.4012,-4.055898 c -3.25379,-5.520608 -6.47131,-6.366918 -12.04655,-3.170394 -1.69069,0.9697 -3.72647,2.077306 -4.52397,2.46199 -0.7975,0.383236 -1.7951,1.027766 -2.21849,1.429872 -0.4205,0.403558 -1.0469,0.73308 -1.39345,0.73308 -0.3451,0 -1.48335,0.65324 -2.53024,1.451646 -1.04546,0.798404 -2.28085,1.451646 -2.74774,1.451646 -0.46545,0 -1.0034,0.409364 -1.1948,0.910182 -0.22765,0.595174 -0.9048,0.844856 -1.94733,0.725822 l -1.5979,-0.18436 -0.14644,-11.613162 c -0.22765,-18.014922 0.899,-17.158452 -22.37487,-17.053934 -13.66619,0.06096 -17.26507,0.240974 -18.71942,0.939216 m 22.24291,18.459124 c 7.43268,3.109426 8.67531,11.78736 2.47659,17.303613 -1.42099,1.26293 -1.77044,1.96263 -1.50799,3.01217 0.1885,0.7505 0.0812,1.52858 -0.23925,1.72745 -1.65735,1.02487 -0.0144,1.4531 5.65353,1.47052 8.33747,0.0247 10.97936,2.14263 8.06777,6.47434 l -1.2963,1.92633 -6.50322,0.16404 c -6.25093,0.15968 -7.15283,0.40211 -5.95513,1.60698 0.3016,0.30484 0.62785,2.1194 0.725,4.03557 l 0.1769,3.48395 2.02999,0.1742 c 4.49209,0.38033 10.49795,5.1548 11.26936,8.95375 0.95554,4.71495 0.96134,5.66432 0.058,8.34841 -1.77335,5.26512 -7.39497,9.52425 -12.57146,9.52425 -1.9198,0 -2.31274,0.15532 -1.77189,0.69679 0.3944,0.39485 0.696,2.28345 0.696,4.35493 v 3.65815 H 135.31 c 7.85896,0 8.39401,8.62712 0.5568,8.96826 l -3.40459,0.14952 -0.3016,3.34024 c -0.7134,7.8926 -9.06537,8.05953 -8.92327,0.17856 0.0609,-3.3925 -0.34799,-3.90493 -3.11168,-3.91799 -3.08849,-0.0146 -9.41337,-4.71785 -9.41337,-6.99984 0,-0.49791 -0.30159,-1.20777 -0.67134,-1.57794 -0.36975,-0.37017 -0.6931,-2.21086 -0.7192,-4.08928 -0.0943,-7.03323 4.55298,-12.24464 12.29305,-13.77613 1.54569,-0.30774 1.78349,-0.5342 1.24699,-1.18454 -0.44659,-0.53711 -0.53214,-1.95972 -0.26099,-4.30267 l 0.40599,-3.49846 h -2.98263 c -10.60236,0 -16.91853,-13.4495 -10.07456,-21.45388 3.20448,-3.7496 5.97252,-5.25496 9.64971,-5.25496 h 3.11313 l -0.16674,-2.17746 a 156.43986,156.61804 0 0 1 -0.2001,-2.90329 c -0.0188,-0.40066 -0.41324,-0.72583 -0.87579,-0.72583 -0.4611,0 -1.5602,-0.947921 -2.44179,-2.103431 -6.08273,-7.98405 2.61724,-19.441888 11.83485,-15.586318 m 274.36643,9.159884 c -1.18318,0.384686 -2.47514,1.02341 -2.87098,1.41971 -0.3973,0.39775 -0.92946,0.721466 -1.18464,0.721466 -0.6264,0 -2.784,2.19489 -2.784,2.832162 0,0.280168 -0.3567,0.805662 -0.7917,1.167122 -2.378,1.975685 -2.3722,11.254605 0.014,14.046125 0.4292,0.50517 0.78154,1.1047 0.78154,1.33551 0,0.84631 3.18854,3.33878 5.6898,4.44639 6.87586,3.0441 14.35782,0.0494 18.52512,-7.41646 5.24608,-9.39505 -6.61342,-22.059201 -17.3753,-18.552025 m -61.6494,19.288015 -2.46498,1.80439 c -1.68778,1.2339 -1.6443,2.0265 0.27114,5.01254 a 90.563731,90.666877 0 0 1 2.65784,4.43187 c 3.4945,6.37708 5.62018,7.95937 7.78068,5.79642 0.3567,-0.3571 1.25424,-0.95083 1.99664,-1.321 2.19384,-1.09599 1.91254,-2.15714 -2.52734,-9.56199 -4.43988,-7.40049 -5.19968,-8.00727 -7.71398,-6.16223 m 87.31574,0.7084 c 2.48384,2.92071 7.22824,12.0385 8.23454,15.82294 0.29724,1.11776 0.9454,3.60008 1.44274,5.51625 1.91108,7.37726 1.27452,25.17734 -1.01646,28.45225 -0.22476,0.31936 -0.59014,1.34568 -0.81344,2.28054 -0.4466,1.86391 -3.10444,7.51226 -5.13442,10.91202 -3.5815,5.99529 -5.55492,8.00147 -7.87636,8.00147 -2.63176,0 -2.42296,-2.00037 0.50748,-4.89204 1.2702,-1.25423 2.30984,-2.62603 2.30984,-3.04846 0,-0.42388 0.261,-0.76937 0.58,-0.76937 0.319,0 0.58,-0.37307 0.58,-0.82743 0,-0.45873 0.32624,-1.1802 0.725,-1.60843 0.6728,-0.71857 1.74868,-2.83506 3.63224,-7.145 0.74964,-1.71296 1.91108,-6.29434 3.13924,-12.38254 1.71098,-8.48052 -0.83376,-22.79665 -5.50998,-30.99989 -0.77866,-1.3689 -1.57616,-2.94684 -1.769,-3.50573 -0.1942,-0.55888 -0.56262,-1.01615 -0.81926,-1.01615 -0.6844,0 -1.2847,-3.2662 -0.8526,-4.63075 0.45822,-1.44584 1.4935,-1.50681 2.639,-0.15968 m -96.0969,1.0118 c -0.7076,1.51842 0.0624,4.86301 1.4355,6.23627 0.37264,0.37307 0.67714,1.03357 0.67714,1.46761 0,0.4355 0.2494,0.63437 0.55534,0.44566 0.63076,-0.3905 0.1276,-2.13392 -0.79458,-2.74797 -0.3364,-0.22355 -0.74676,-1.8523 -0.9135,-3.6146 -0.2726,-2.94248 -0.35236,-3.092 -0.9599,-1.78552 m -216.68953,3.05571 c -3.37558,2.09618 -1.64429,7.68501 2.44469,7.88969 l 1.7951,0.09 0.14064,-4.5001 c 0.15804,-5.04301 -0.7279,-5.74706 -4.38044,-3.47959 m 219.9641,5.89949 c 0,1.08147 0.71486,2.35456 1.1658,2.07585 0.59162,-0.36582 0.029,-2.60861 -0.65392,-2.60861 a 0.52344785,0.52404403 0 0 0 -0.51188,0.53276 m 1.74,3.13555 c 0,0.45872 0.39152,1.16131 0.87002,1.55761 0.47846,0.39775 0.87,1.08294 0.87,1.52424 0,0.43839 0.261,0.7984 0.57998,0.7984 0.84968,0 0.70762,-0.95083 -0.29,-1.94956 -0.47852,-0.47904 -0.87,-1.13519 -0.87,-1.4589 0,-0.32372 -0.261,-0.74905 -0.58,-0.94648 -0.319,-0.19742 -0.58,0.016 -0.58,0.47469 m 75.56644,0.93631 c 0.78736,0.93631 1.95316,2.83071 2.59114,4.20978 2.80866,6.07513 3.04208,7.24661 3.04208,15.28292 0,7.87373 -0.1014,8.4239 -2.76946,15.09711 -1.05996,2.64925 -5.742,9.29924 -7.76764,11.03252 -5.04018,4.31283 -12.15386,8.41953 -14.58694,8.41953 -0.72792,0 -1.61384,0.29033 -1.96764,0.64454 -0.90916,0.91018 -15.05528,0.94356 -15.95866,0.0377 -0.37698,-0.37598 -1.36296,-0.68227 -2.19526,-0.68227 -0.83086,0 -2.0184,-0.38324 -2.639,-0.85211 -0.61916,-0.46889 -1.4471,-0.86083 -1.8415,-0.87099 -2.16194,-0.0566 -9.1567,-5.44368 -8.4839,-6.53531 0.5974,-0.96825 4.38478,-0.39194 6.59022,1.00163 1.26148,0.7984 2.58824,1.45165 2.94348,1.45165 0.3567,0 1.33978,0.36292 2.1866,0.80422 7.69802,4.03266 20.29702,2.53747 29.09848,-3.45348 4.38476,-2.98457 8.51872,-7.82001 10.64006,-12.44931 4.36448,-9.51989 3.37848,-23.161 -2.19964,-30.48455 -2.6825,-3.5217 0.46978,-6.04175 3.31758,-2.65361 M 131.68501,136.7021 c 0.13048,2.27183 -0.0667,3.71332 -0.5974,4.35494 -1.21076,1.4589 3.44664,1.35584 4.76904,-0.10598 2.47514,-2.73925 0.46399,-7.64871 -3.13345,-7.64871 -1.13969,0 -1.21799,0.25838 -1.03819,3.3983 m 253.73883,11.9093 c 3.58004,3.0833 2.63464,18.31977 -1.276,20.53788 l -2.2823,1.29777 -33.8617,0.0146 c -42.04694,0.0146 -38.39296,1.19615 -38.30886,-12.40141 0.0768,-11.8193 -3.59598,-10.80605 39.22234,-10.8104 h 34.91296 l 1.59356,1.3718 m -265.57223,4.32874 c -1.90675,1.87697 -2.001,3.13265 -0.39585,5.38705 1.43984,2.0236 4.50803,2.52296 3.46113,0.56324 -1.01064,-1.88714 -0.74819,-6.28127 0.4147,-6.95919 0.8816,-0.51388 0.82505,-0.58936 -0.435,-0.5763 -0.79749,0.0146 -2.16774,0.72146 -3.04498,1.5852 m 195.60421,-1.21213 c -1.5022,0.57195 -1.7226,1.4618 -1.7313,7.01725 -0.014,8.57197 -4.07884,7.65598 33.96176,7.65598 39.04254,0 35.6336,0.68664 35.622,-7.17984 0,-2.9178 -0.1654,-5.89222 -0.35814,-6.61079 l -0.34944,-1.30648 -33.13818,0.0465 c -18.22642,0.0247 -33.5282,0.19452 -34.0067,0.37742 m 27.0279,23.52826 c 1.50652,1.99602 3.37702,4.32592 4.15856,5.17803 1.76176,1.92342 1.28616,2.81039 -1.49638,2.79151 -2.98988,-0.0218 -10.12096,-9.51264 -8.42448,-11.21106 1.2702,-1.27019 3.1639,-0.20323 5.76374,3.24152 m 43.20982,13.06482 c -38.03334,0.14226 -40.88114,0.2221 -41.60758,1.16567 -0.98602,1.2789 -0.6032,10.87283 0.4843,12.18511 0.88884,1.07132 84.829,0.5226 86.15864,-0.56178 0.49156,-0.40064 0.725,-2.43732 0.725,-6.3074 0,-6.19853 -0.4785,-7.1029 -3.58728,-6.77628 -0.7395,0.0784 -19.71558,0.21049 -42.17164,0.29468 m 115.74723,71.17854 c 0.26536,0.26564 0.5278,19.47092 0.58436,42.67838 0.0566,23.20746 0.42774,73.38504 0.82214,111.5067 0.54808,52.85152 0.55824,69.56866 0.042,70.3961 -0.37264,0.59808 -0.67712,1.49664 -0.67712,1.9989 0,2.48959 -7.14848,11.87737 -9.04216,11.87737 -0.37122,0 -1.0005,0.39196 -1.3978,0.87098 -0.3973,0.47906 -1.29048,0.871 -1.98648,0.871 -0.69312,0 -1.58777,0.32662 -1.98651,0.72582 -0.57128,0.57196 -21.5759,0.80276 -99.15058,1.08874 -54.13408,0.20032 -104.43584,0.56614 -111.7815,0.81436 -11.7986,0.3963 -13.4632,0.3426 -14.27374,-0.46888 -0.82214,-0.82308 -0.957,-8.00726 -1.2876,-69.04025 -0.203,-37.46698 -0.5365,-91.42898 -0.7424,-119.91464 l -0.37264,-51.79326 1.3862,-0.29032 c 0.7627,-0.1596 32.44506,-0.46452 70.4059,-0.68082 37.96086,-0.21484 88.33364,-0.57486 111.93956,-0.7984 51.16303,-0.48922 56.88905,-0.47324 57.51835,0.1596 M 251.2167,279.6383 c 0.6235,27.27786 1.40216,220.11589 0.8961,221.66625 l -0.42774,1.30648 -70.91922,0.0464 c -39.00629,0.0262 -88.406141,0.23226 -109.779053,0.45872 -21.372914,0.22646 -40.449035,0.22064 -42.390577,-0.014 -7.861868,-0.94356 -14.449191,-6.89386 -16.940281,-15.29889 -0.771377,-2.6032 -2.1314711,-222.07314 -1.391974,-224.78044 0.234899,-0.86372 137.130295,-2.38942 206.592265,-2.30086 l 33.92986,0.0436 0.43064,18.8714 m -126.29013,26.57092 c -0.957,0.495 -1.8705,1.05534 -2.03,1.2484 -0.1595,0.1888 -3.03048,2.69572 -6.37997,5.56998 a 1305.6472,1307.1342 0 0 0 -10.72996,9.31376 822.40475,823.34141 0 0 1 -6.311819,5.51624 c -2.28519,1.95102 -2.58969,2.22102 -5.884078,5.20126 -1.587742,1.43712 -4.164382,3.65814 -5.724576,4.9356 -1.560194,1.27744 -3.517684,2.98602 -4.349984,3.79604 -0.829394,0.81292 -4.38043,3.93396 -7.889416,6.93596 -3.508984,3.0049 -7.29347,6.3045 -8.409966,7.33372 -1.116494,1.03066 -2.810088,2.48232 -3.764184,3.22556 -0.952646,0.74468 -2.14599,1.74632 -2.65349,2.22536 -0.503148,0.47904 -1.871942,1.72312 -3.040638,2.76394 -9.962907,8.87826 -3.784486,19.25898 11.488304,19.30108 3.508984,0.014 6.667074,0.20904 7.01797,0.4442 0.4437,0.2976 0.75255,10.87864 1.014998,34.85546 0.346548,31.26844 0.474148,34.5724 1.386192,36.00082 3.27409,5.11996 1.138248,4.93124 52.025787,4.60172 45.15861,-0.29614 47.95421,-0.4413 50.12484,-2.60572 3.1117,-3.1007 2.97975,-1.39648 2.97975,-38.61086 0,-26.0222 0.16966,-34.62174 0.696,-35.15014 0.464,-0.46454 3.00149,-0.6968 7.59796,-0.6968 9.60767,0 13.73435,-2.32844 14.62031,-8.2497 0.93232,-6.21884 0,-7.38888 -17.4043,-22.03018 -8.02861,-6.75014 -10.4849,-8.84486 -10.72995,-9.14246 -0.1595,-0.1946 -1.4645,-1.31518 -2.89998,-2.49102 -1.43552,-1.17438 -3.29584,-2.74216 -4.13395,-3.48394 a 221.0226,221.27434 0 0 0 -4.33547,-3.66832 325.15682,325.52716 0 0 1 -8.12287,-6.96788 108.74956,108.87342 0 0 0 -2.05464,-1.74198 c -4.98797,-4.1314 -8.40271,-7.0405 -8.90296,-7.58486 -0.319,-0.3484 -2.1373,-1.91906 -4.03969,-3.4912 -5.96237,-4.9269 -6.24947,-5.16786 -6.91212,-5.79788 -2.65349,-2.52006 -8.85657,-3.3083 -12.2481,-1.55616 m 8.77246,2.81184 c 1.5341,0.35564 4.77774,2.66376 8.17797,5.81674 0.75399,0.70114 2.45484,2.14844 3.77579,3.2154 2.81879,2.27908 7.26881,6.0824 8.25916,7.0608 0.38135,0.37742 1.83713,1.60116 3.23349,2.71892 a 179.14677,179.35081 0 0 1 8.10836,6.9679 c 0.5191,0.47906 1.58485,1.39358 2.36784,2.0323 3.48724,2.84524 8.51728,7.11744 10.42981,8.86086 1.1455,1.04518 3.00729,2.61586 4.13249,3.4883 2.19384,1.69842 8.32006,6.95048 14.24619,12.2127 7.13107,6.32918 7.89957,12.72076 2.02419,16.81732 -3.85843,2.6899 -2.20399,2.62166 -68.59923,2.8641 l -62.929737,0.22934 -2.293892,-1.33552 c -7.41962,-4.32444 -7.312318,-11.40556 0.2726,-17.87846 a 434.27324,434.76784 0 0 0 5.669478,-4.9356 c 3.880184,-3.4578 4.808178,-4.26202 7.602318,-6.58756 1.402144,-1.16712 3.229136,-2.77554 4.059984,-3.57394 0.830846,-0.79842 2.43599,-2.23554 3.569886,-3.19364 6.98897,-5.914 8.460714,-7.18854 10.622656,-9.19906 a 122.3563,122.49566 0 0 1 5.006827,-4.35494 134.16795,134.32076 0 0 0 3.24654,-2.70442 c 4.86473,-4.44058 9.93971,-8.88118 10.90685,-9.54748 0.6699,-0.46016 1.3485,-1.00888 1.508,-1.21792 1.38184,-1.81456 8.61877,-7.52678 9.54822,-7.53404 0.64958,0 1.57323,-0.2729 2.05173,-0.59518 0.4785,-0.31936 1.42534,-0.45582 2.10249,-0.29904 l 2.89999,0.67212 m -5.72748,4.08638 c -1.11215,0.32226 -2.73033,1.62004 -6.41767,5.14462 -1.3369,1.27746 -3.99618,3.6146 -5.90873,5.1969 -1.91399,1.57794 -3.89178,3.27636 -4.39783,3.77428 -1.86034,1.82326 -8.99286,8.09292 -10.68066,9.38778 -0.956991,0.7331 -2.267785,1.86684 -2.914481,2.52008 -0.642348,0.65322 -3.121838,2.8844 -5.50708,4.96026 a 1125.6521,1126.9342 0 0 0 -4.985078,4.35494 c -0.356698,0.31936 -1.402146,1.20922 -2.32144,1.97714 -0.919298,0.76938 -2.85359,2.4678 -4.299234,3.77428 -1.444194,1.30794 -4.297782,3.81492 -6.340824,5.5714 -11.479602,9.8712 -13.022396,13.059 -7.867668,16.24828 2.718738,1.68392 121.292015,1.4023 128.077985,-0.30194 5.85798,-1.47342 4.59648,-6.83726 -3.08994,-13.13304 -2.43308,-1.99166 -3.31033,-2.7349 -6.94258,-5.88206 -0.79749,-0.691 -3.27698,-2.81184 -5.50998,-4.71496 -2.23297,-1.90164 -4.49062,-3.86864 -5.01697,-4.36944 -0.52489,-0.50082 -2.07929,-1.82616 -3.45244,-2.94394 -1.37314,-1.11776 -3.42198,-2.84812 -4.55298,-3.8454 a 203.36168,203.59328 0 0 0 -3.50898,-3.01508 c -2.72889,-2.26456 -10.72705,-9.10618 -12.46997,-10.66524 -0.95697,-0.85648 -3.82797,-3.33588 -6.37996,-5.50756 -2.55199,-2.1731 -4.90099,-4.23008 -5.21997,-4.57266 -2.81879,-3.02668 -7.41093,-4.79334 -10.29207,-3.95864 m 232.72262,40.69834 c -0.4785,0.1814 -1.0005,0.48774 -1.16,0.67936 -0.4176,0.50082 -2.378,1.69408 -4.06,2.4736 -1.30932,0.60534 -1.34124,0.6968 -0.32768,0.93196 0.61624,0.1452 1.39924,-0.1162 1.73998,-0.57776 1.0353,-1.40808 8.03588,-2.7465 8.70432,-1.66358 0.21606,0.34984 1.00048,0.63582 1.7458,0.63582 0.74384,0 1.50364,0.39194 1.68778,0.87098 0.1828,0.47906 0.6206,0.871 0.9715,0.871 0.3538,0 1.0324,0.39194 1.5109,0.87096 0.9976,0.99876 1.94734,1.14102 1.94734,0.29036 0,-0.31936 -0.3915,-0.58066 -0.87,-0.58066 -0.4785,0 -0.87,-0.20614 -0.87,-0.45726 0,-2.38652 -7.9416,-5.51626 -11.01994,-4.34478 m 33.34986,0.47614 c -0.95702,0.49064 -2.00098,1.22808 -2.31998,1.64036 -0.319,0.40936 -2.2011,1.93794 -4.1847,3.39684 -4.20498,3.092 -5.38528,4.19816 -5.38528,5.05318 0,1.1773 -1.88064,0.61986 -3.90048,-1.1555 -2.21414,-1.9452 -3.31034,-1.95682 -1.36736,-0.014 0.66412,0.66484 1.36154,1.20922 1.55006,1.20922 0.1884,0 0.77576,0.5226 1.305,1.16132 1.06284,1.28034 0.31898,1.7652 8.26496,-5.38416 1.9894,-1.78844 5.38818,-3.73074 8.75362,-5.00236 1.53408,-0.57922 6.05952,0.54 8.10836,2.00472 2.059,1.4734 9.8527,5.47848 10.66036,5.47848 0.39586,0 0.86998,0.39196 1.0556,0.871 0.1826,0.47906 0.86418,0.871 1.51088,0.871 0.64816,0 1.17886,0.25694 1.17886,0.56904 0,0.31356 0.65248,0.73454 1.44998,0.93486 0.7975,0.20032 1.45,0.5763 1.45,0.83616 0,0.25838 0.783,0.64306 1.73998,0.85356 0.95702,0.21048 1.74002,0.59518 1.74002,0.85356 0,0.2613 0.65246,0.63582 1.44998,0.83614 0.7975,0.20034 1.45,0.62132 1.45,0.93488 0,0.3121 0.52198,0.56904 1.15998,0.56904 0.638,0 1.16,0.21048 1.16,0.46888 0,0.2584 1.00776,0.91454 2.23734,1.45744 1.97926,0.8739 2.9203,1.51116 5.71298,3.8701 0.38568,0.32516 1.218,0.59082 1.85166,0.59082 0.6322,0 1.30062,0.24678 1.48622,0.5458 0.1856,0.30196 1.4616,1.10908 2.8333,1.79424 1.43404,0.71712 6.61198,5.30142 12.1727,10.77702 5.32148,5.24046 9.93536,9.5286 10.25146,9.5286 0.3161,0 0.57418,0.39194 0.57418,0.87098 0,0.47906 0.261,0.871 0.58002,0.871 3.11458,0 -20.60878,-22.82568 -26.5784,-25.57364 -5.27798,-2.4286 -6.77438,-3.17328 -7.06148,-3.50572 -0.1594,-0.1858 -1.59498,-0.9697 -3.18998,-1.74198 -1.595,-0.77228 -2.987,-1.60116 -3.09282,-1.84068 -0.1074,-0.23952 -0.5452,-0.4355 -0.9744,-0.4355 -0.42922,0 -1.12666,-0.32662 -1.55152,-0.72582 -0.42338,-0.3992 -2.59548,-1.64036 -4.82556,-2.75812 -2.2301,-1.11776 -4.18614,-2.192 -4.34564,-2.38942 -0.1596,-0.196 -0.87724,-0.54146 -1.59498,-0.76502 -0.71776,-0.225 -1.305,-0.63 -1.305,-0.90292 0,-0.2729 -0.783,-0.66774 -1.74,-0.87824 -0.957,-0.2105 -1.74,-0.59518 -1.74,-0.85356 0,-0.25986 -0.65248,-0.63584 -1.44998,-0.83616 -0.79752,-0.20032 -1.45,-0.6213 -1.45,-0.93486 0,-0.3121 -0.5075,-0.56904 -1.1252,-0.56904 -0.61914,0 -1.27164,-0.23226 -1.4471,-0.52114 -1.50218,-2.43296 -7.9793,-3.64218 -11.05764,-2.06134 m -41.45968,4.20542 c -0.4727,0.1684 -1.2093,0.65614 -1.6356,1.08292 -0.42774,0.42824 -1.14984,0.7781 -1.6066,0.7781 -0.45528,0 -0.82794,0.1974 -0.82794,0.4384 0,0.24242 -1.37024,1.08436 -3.045,1.8726 -2.62446,1.23536 -2.84922,1.46326 -1.62688,1.64908 0.83374,0.1262 1.69504,-0.1654 2.09378,-0.71132 0.3712,-0.50806 1.07156,-0.92616 1.55586,-0.92616 0.4843,0 1.2035,-0.39192 1.60224,-0.87098 0.3973,-0.47902 0.9454,-0.87098 1.21654,-0.87098 0.90336,0 4.10784,-2.18908 3.61628,-2.4707 -0.26534,-0.151 -0.86998,-0.138 -1.34268,0.029 m 44.64966,1.01614 c -0.7975,0.4413 -1.885,0.81294 -2.41714,0.82454 -0.5307,0.014 -1.0527,0.225 -1.16,0.4747 -0.1058,0.25114 -1.82262,1.70132 -3.81348,3.22554 -1.99228,1.52424 -3.89324,3.27782 -4.22528,3.89912 -0.81924,1.5315 -0.20444,1.42408 1.34848,-0.23226 1.26586,-1.35002 4.756,-3.73798 8.38098,-5.7311 1.0353,-0.56904 3.12328,-1.0655 4.63998,-1.1018 1.51524,-0.0378 2.233,-0.196 1.595,-0.35128 -0.638,-0.1554 -1.5515,-0.62712 -2.03,-1.04956 -0.72064,-0.63436 -1.1165,-0.62856 -2.31998,0.0406 m -37.40986,0.84632 c -0.783,0.33676 0.2523,0.49934 3.19,0.49934 2.94058,0 3.97298,-0.1626 3.18998,-0.49934 -0.638,-0.27438 -2.07348,-0.49938 -3.18998,-0.49938 -1.1165,0 -2.552,0.225 -3.19,0.49938 m -19.79822,5.51622 c -0.1842,0.47906 -0.95844,0.871 -1.72258,0.871 -0.7627,0 -1.38766,0.27 -1.38766,0.59954 0,0.32952 -0.58724,0.83614 -1.30498,1.12502 -1.25426,0.50372 -1.24266,0.5255 0.29,0.56178 0.87724,0.0204 1.59498,-0.21774 1.59498,-0.52986 0,-0.31208 1.1745,-1.10178 2.61,-1.75648 2.86518,-1.30646 3.22332,-1.74196 1.43112,-1.74196 -0.64668,0 -1.32818,0.39194 -1.51088,0.87096 m 18.34968,0.89714 c -1.4355,0.93196 -2.8014,1.69842 -3.03484,1.70424 -0.23344,0.014 -2.13148,1.05678 -4.21512,2.33424 -2.0851,1.27744 -4.147,2.32262 -4.5791,2.32262 -0.435,0 -1.11358,0.39196 -1.51088,0.871 -0.3973,0.47904 -1.0208,0.87098 -1.38766,0.87098 -0.3654,0 -2.74192,1.04518 -5.28232,2.32264 -2.54038,1.27744 -5.27508,2.32262 -6.07838,2.31972 -2.30548,0 -9.53516,2.58974 -12.14804,4.35784 -0.47126,0.31936 -9.67872,9.38198 -20.46086,20.13868 l -19.60392,19.55658 v 2.52876 c 0,2.51716 0.058,2.58538 11.04894,13.39578 14.24186,14.00838 12.32496,13.81386 23.83066,2.38796 l 8.53612,-8.4776 2.50704,0.37016 c 1.38038,0.20324 3.59598,0.6489 4.92562,0.99148 2.2649,0.5821 3.59454,0.52548 9.96726,-0.421 1.4703,-0.22064 3.04354,-0.1104 3.76998,0.26276 0.6844,0.3513 2.68104,0.88696 4.43554,1.1918 1.7545,0.30486 4.88648,0.97552 6.95996,1.4923 2.0735,0.51532 4.6835,1.141 5.79998,1.39066 1.93286,0.43116 8.00688,2.99912 9.85996,4.16768 0.4785,0.30196 1.2615,0.6968 1.74,0.87826 0.4785,0.18 1.32384,0.5705 1.87774,0.86662 1.5225,0.81438 2.4766,0.65614 3.6105,-0.59952 1.67618,-1.85376 0.7743,-3.7075 -2.5781,-5.30142 -1.6008,-0.76066 -2.91014,-1.58228 -2.91014,-1.82616 0,-0.24388 -0.32624,-0.4442 -0.725,-0.44566 -0.8787,0 -8.7652,-5.1127 -9.0378,-5.85738 -0.1074,-0.29034 -0.4611,-0.5284 -0.78736,-0.5284 -0.50024,0 -4.77338,-3.05282 -5.68978,-4.06462 -0.1594,-0.1742 -1.4645,-1.20922 -2.9,-2.2936 -3.14212,-2.37924 -9.1654,-8.57486 -9.9049,-10.19054 a 27.680388,27.711914 0 0 0 -1.044,-2.0323 c -3.15664,-5.3827 -3.11168,-16.48634 0.0724,-17.90316 0.2407,-0.1074 0.44514,-0.49936 0.4553,-0.87098 0.0434,-1.69842 5.75938,-6.5237 9.55112,-8.06678 5.98848,-2.43878 14.84214,-2.1383 19.46908,0.65902 1.09474,0.66196 2.37654,1.38778 2.84778,1.61134 0.47126,0.225 1.4152,1.0118 2.0967,1.74778 2.38522,2.57668 2.72598,1.86826 2.44178,-5.06188 -0.30016,-7.3047 -0.54084,-7.7155 -7.71542,-13.2274 -1.914,-1.47052 -3.6105,-2.8162 -3.77,-2.9904 -2.37506,-2.59554 -6.94546,-2.84958 -10.43994,-0.58066 m 37.83614,-0.64308 c -4.41956,2.47216 -10.3834,8.06536 -10.93296,10.24864 -0.1914,0.76936 -0.54808,1.39936 -0.79024,1.39936 -1.2441,0 -1.97488,12.21706 -0.7569,12.62352 0.31176,0.103 2.1721,-0.99582 4.13684,-2.44312 1.9633,-1.4473 3.96138,-2.63182 4.43698,-2.63182 0.47848,0 0.87,-0.22646 0.87,-0.50228 0,-0.6634 7.24272,-2.40394 9.99626,-2.40246 7.88072,0 16.77642,5.32754 19.93306,11.9267 1.68926,3.53186 1.56456,13.1461 -0.2088,15.94634 -0.70758,1.11776 -1.53698,2.5549 -1.84148,3.19362 -0.77286,1.62584 -6.14798,7.1595 -9.60912,9.90022 -1.59498,1.26292 -3.03048,2.44312 -3.18998,2.62748 -0.6351,0.72582 -18.85428,14.10562 -20.67402,15.17986 -4.33984,2.5636 -1.3021,5.81384 3.22624,3.45056 l 3.34078,-1.74052 c 5.11268,-2.65652 8.49118,-4.15896 9.3597,-4.15896 0.56988,0 1.28326,-0.2468 1.5863,-0.54728 0.551,-0.54728 3.73374,-1.46036 8.09098,-2.31972 1.27598,-0.2526 3.05512,-0.75486 3.95268,-1.11778 0.9541,-0.38614 5.07354,-0.6605 9.91652,-0.6605 6.41186,0 8.69996,-0.20906 10.13256,-0.9247 2.38522,-1.19034 2.35914,-1.20922 12.02334,8.33826 11.2418,11.10798 9.08856,11.53478 25.4532,-5.04738 12.4076,-12.57124 12.80346,-10.20216 -4.61534,-27.49996 -22.58654,-22.42794 -25.4793,-25.09316 -29.03902,-26.73932 -1.26732,-0.58792 -3.045,-1.43712 -3.94544,-1.88714 -0.90336,-0.45292 -3.25234,-0.82454 -5.21998,-0.82744 -2.79414,0 -4.15134,-0.33968 -6.18856,-1.52278 -1.4355,-0.8318 -4.80964,-2.6841 -7.49648,-4.11396 -2.6883,-1.42986 -5.87972,-3.22846 -7.09338,-3.99494 -1.21364,-0.7679 -2.37944,-1.39356 -2.58968,-1.39356 -0.21026,0 -1.65444,-0.7839 -3.2103,-1.74198 -3.28422,-2.02506 -6.18566,-2.22102 -9.05376,-0.61696 m -64.22604,4.09946 c -0.1972,0.31936 0.1638,0.58066 0.80186,0.58066 0.638,0 1.31948,-0.2613 1.51814,-0.58066 0.1972,-0.31936 -0.1638,-0.58066 -0.80184,-0.58066 -0.638,0 -1.32096,0.2613 -1.51816,0.58066 m 10.14998,0 c -0.70326,0.45582 -0.62062,0.56614 0.435,0.57194 0.71772,0 1.30498,-0.25258 1.30498,-0.57194 0,-0.72582 -0.61482,-0.72582 -1.73998,0 m -13.33996,1.74198 c 0,0.31936 0.522,0.58066 1.16,0.58066 0.63798,0 1.15998,-0.2613 1.15998,-0.58066 0,-0.31936 -0.522,-0.58066 -1.15998,-0.58066 -0.638,0 -1.16,0.2613 -1.16,0.58066 m 10.14996,0 c -0.1972,0.31936 0.0334,0.58066 0.51186,0.58066 0.47848,0 1.02948,-0.2613 1.22814,-0.58066 0.1972,-0.31936 -0.0334,-0.58066 -0.51186,-0.58066 -0.47848,0 -1.03094,0.2613 -1.22814,0.58066 m -13.04994,2.0323 c -0.3973,0.47904 -1.08172,0.87098 -1.5225,0.87098 -0.4379,0 -0.7975,0.23226 -0.7975,0.51824 0,0.28452 -0.71484,0.69678 -1.5892,0.91598 -0.87434,0.22066 -1.72258,0.57776 -1.88498,0.79406 -0.1624,0.21774 -1.43116,1.13228 -2.81878,2.03376 -1.3862,0.90002 -4.5182,3.73798 -6.95998,6.30594 -2.44034,2.56942 -7.04698,7.35258 -10.23696,10.6333 -9.90346,10.1804 -11.37086,11.89624 -10.18476,11.89624 0.33786,0 0.6148,-0.39194 0.6148,-0.87098 0,-0.47906 0.23054,-0.87098 0.5133,-0.87098 0.28272,0 6.22046,-5.6832 13.19494,-12.62934 6.97448,-6.9461 13.20366,-12.94286 13.84166,-13.32464 0.63796,-0.38324 2.20398,-1.26148 3.47996,-1.95102 1.276,-0.68952 2.4505,-1.42696 2.61,-1.636 0.1594,-0.21048 1.15854,-1.096 2.2185,-1.96844 1.08314,-0.8913 1.56018,-1.5881 1.0875,-1.5881 -0.464,0 -1.1687,0.39196 -1.566,0.871 m 10.1253,-0.24968 c -0.2117,0.34114 -0.94394,0.84774 -1.6298,1.12502 l -1.24698,0.50226 1.30498,0.0378 c 0.7192,0.0204 1.305,-0.23226 1.305,-0.56326 0,-0.3295 0.5887,-0.83614 1.30498,-1.12502 0.94686,-0.38032 1.03676,-0.5342 0.32626,-0.56178 -0.5394,-0.0204 -1.1542,0.24388 -1.36444,0.58502 m -156.63706,10.16878 c 0.86999,2.27326 0.377,64.5329 -0.51766,65.27614 -0.47849,0.39774 -0.86999,1.07422 -0.86999,1.50246 0,1.05534 -4.01938,3.72346 -5.61147,3.72346 -0.70325,0 -1.4413,0.2613 -1.6385,0.58066 -0.23344,0.37742 -14.30129,0.58066 -40.30984,0.58066 -26.00854,0 -40.077833,-0.20324 -40.309831,-0.58066 -0.1972,-0.31936 -0.865646,-0.58066 -1.484796,-0.58066 -1.82844,0 -5.02713,-3.88896 -5.779676,-7.02596 -1.177394,-4.91674 -1.104894,-62.65156 0.0812,-63.40498 2.855038,-1.8131 2.833288,-2.04246 2.833288,29.53228 0,40.81592 -1.261494,37.98956 16.964935,37.99392 h 11.45495 v -36.15468 l 2.07059,-1.95538 2.07204,-1.95536 h 11.8015 c 18.00459,0 17.11574,-1.18744 17.11574,22.87794 v 17.18748 l 10.58496,-0.014 c 19.56766,-0.014 17.83493,3.47814 17.83493,-35.98484 0,-17.46184 0.17398,-31.9246 0.38715,-32.13652 0.73803,-0.74034 2.97103,-0.3818 3.32048,0.53128 m 181.31162,2.5941 c -6.68448,1.52568 -7.72122,2.02794 -11.32882,5.48722 -6.11898,5.8661 -6.46118,14.06354 -0.88738,21.19402 2.77964,3.55654 2.87678,3.648 8.30556,7.8984 7.52402,5.89078 8.08372,6.3045 9.06972,6.7066 0.51182,0.2076 1.45434,0.86084 2.09522,1.45166 2.5839,2.38214 13.68794,9.49376 14.8262,9.49376 1.02658,0 5.97834,-2.96136 6.91938,-4.13718 0.1596,-0.20034 1.0875,-0.85358 2.06334,-1.45166 10.70966,-6.57594 26.88144,-20.41738 26.95538,-23.06954 0.014,-0.36726 0.40166,-1.17294 0.87,-1.79278 1.1165,-1.48068 1.102,-7.08404 -0.0218,-9.24698 -0.47848,-0.91454 -0.86708,-1.96698 -0.86708,-2.33716 0,-1.1439 -6.07692,-6.98242 -8.47086,-8.14228 -1.24266,-0.60098 -2.7579,-1.34422 -3.36834,-1.65196 -2.2011,-1.10908 -7.73574,-1.23972 -9.29156,-0.21776 -0.7975,0.52258 -1.94736,0.94792 -2.5578,0.94792 -0.61044,0 -1.4355,0.39196 -1.83134,0.871 -0.3973,0.47904 -1.044,0.87098 -1.43694,0.87098 -0.93814,0 -5.42298,4.40428 -7.26448,7.13338 -1.82264,2.70442 -1.79798,2.70732 -4.45438,-0.58936 -4.77048,-5.91836 -8.33166,-8.04792 -16.13408,-9.64328 -0.638,-0.1306 -2.0735,-0.029 -3.18998,0.225 m 48.15284,3.2575 c 8.97256,4.48122 12.38296,15.36566 6.81352,21.73258 -0.95408,1.09018 -2.03144,2.3807 -2.39538,2.86846 -0.53794,0.7229 -4.91984,4.49284 -7.60088,6.5382 -4.54426,3.46944 -12.61784,9.1236 -13.0253,9.1236 a 0.84099657,0.84195441 0 0 0 -0.72208,0.4979 c -1.102,2.83218 -10.50232,6.8837 -11.81168,5.09094 -0.37842,-0.51824 -0.85546,-0.94358 -1.05846,-0.94358 -0.3538,0 -5.79274,-3.82654 -9.29738,-6.54112 -0.92074,-0.7142 -1.96474,-1.40084 -2.31998,-1.52712 -0.8642,-0.30774 -5.23448,-3.71042 -5.47808,-4.26638 -0.1074,-0.24244 -0.46112,-0.43986 -0.78734,-0.43986 -1.40216,0 -12.06976,-9.62006 -12.06976,-10.88444 0,-0.33242 -0.3915,-0.75486 -0.87,-0.9392 -0.4785,-0.183 -0.87,-0.6939 -0.87,-1.1323 0,-0.4413 -0.42196,-1.64762 -0.9367,-2.68118 -3.66122,-7.34824 5.5738,-17.4604 15.94994,-17.4604 7.85318,0 11.76236,2.22392 17.14764,9.75506 2.63754,3.69008 3.33498,3.66976 5.95658,-0.1742 6.33068,-9.27602 15.37574,-12.6119 23.3739,-8.61696 m 62.4295,13.9866 c -0.3567,0.57484 1.87484,2.7291 2.34174,2.25876 0.1594,-0.1596 -0.22766,-0.85356 -0.8642,-1.53728 -0.6351,-0.68228 -1.30066,-1.0089 -1.479,-0.72148 M 118.89737,416.2973 c -0.4669,0.56324 -0.61335,5.75142 -0.5046,17.85524 l 0.1537,17.0583 11.17946,0.1596 c 7.05132,0.0972 11.60285,-0.0712 12.32495,-0.45726 1.40069,-0.7505 1.82264,-33.3414 0.44949,-34.7161 -1.06574,-1.06696 -22.7098,-0.97696 -23.60155,0.0988 m 21.83256,1.49518 c 1.96039,1.63602 2.06334,30.3597 0.1131,31.4049 -1.1774,0.63002 -20.41592,0.61406 -21.04376,-0.018 -0.1595,-0.1596 -0.3625,-7.0434 -0.45385,-15.29748 l -0.1653,-15.00564 1.42099,-1.09308 c 2.13149,-1.64036 18.16262,-1.63456 20.12882,0.014 m 346.7023,3.37218 c 1.70519,4.08926 1.70807,4.13136 0.5481,6.48158 -0.62494,1.26584 -5.95514,7.21758 -11.84356,13.2245 -16.50672,16.84198 -16.02534,16.74762 -27.48174,5.3435 -9.29882,-9.25858 -7.45006,-8.51536 -20.10126,-8.07116 l -10.72996,0.37744 10.86334,0.1046 10.86482,0.1046 9.23936,9.37182 9.24082,9.37182 2.77382,-0.31354 c 2.99716,-0.33826 11.67246,-8.71714 27.46144,-26.51868 2.23153,-2.51716 2.54907,-7.38596 0.60611,-9.33116 -1.42969,-1.43134 -2.00099,-1.4894 -1.44129,-0.1452 m -212.73878,1.89438 c -0.65976,0.76938 -1.00052,2.16442 -1.00052,4.09654 v 2.92944 l 10.29498,10.5041 c 15.96878,16.29182 17.02292,17.2949 18.58022,17.6854 1.885,0.47468 4.72988,-1.05246 7.67482,-4.12124 7.77632,-8.10452 11.4767,-12.24316 11.18524,-12.50882 -0.1826,-0.1654 -0.44948,0.0246 -0.59158,0.42388 -0.142,0.3992 -0.6293,0.72582 -1.08026,0.72582 -0.4524,0 -0.82214,0.2497 -0.82214,0.55452 0,0.50954 -6.51338,7.06952 -9.80342,9.8712 -2.07494,1.76664 -6.78596,1.7681 -9.62794,0.002 -0.957,-0.59518 -6.68738,-6.05046 -12.73386,-12.12126 l -10.99676,-11.0441 0.0376,-4.08204 c 0.0204,-2.2457 0,-4.08348 -0.0406,-4.08348 -0.0434,0 -0.52634,0.52548 -1.07588,1.16858 m 50.76428,15.50648 a 12.903497,12.918194 0 0 0 3.19,0 c 0.8787,-0.1336 0.1596,-0.24242 -1.595,-0.24242 -1.7545,0 -2.4708,0.1088 -1.595,0.24242 m 14.78994,-0.014 a 8.2084163,8.2177653 0 0 0 2.60998,0 c 0.7192,-0.138 0.1304,-0.25114 -1.30498,-0.25114 -1.4355,0 -2.02128,0.1132 -1.305,0.25114 m -8.26496,1.33262 c -0.2175,0.3513 0.58724,0.58066 2.02998,0.58066 1.44564,0 2.2475,-0.22936 2.03,-0.58066 -0.1958,-0.31938 -1.10924,-0.58068 -2.03,-0.58068 -0.91784,0 -1.83134,0.2613 -2.02998,0.58068 m 12.20894,-0.0436 c 0.3045,0.29324 1.7255,0.58066 3.161,0.63292 3.67574,0.1394 4.14698,-0.0638 1.44998,-0.62276 -3.21172,-0.66484 -5.28668,-0.67066 -4.61098,-0.014 m 69.57072,0.045 c -1.63124,0.41662 -1.58628,0.4471 0.725,0.51242 1.3572,0.0378 2.46498,-0.193 2.46498,-0.51242 0,-0.6489 -0.64232,-0.6489 -3.18998,0 m -62.11484,1.65196 c 0.2291,0.36872 1.41374,0.67066 2.63464,0.67066 1.22088,0 2.96668,0.39194 3.88018,0.86808 0.91348,0.47614 2.639,0.8681 3.83668,0.871 1.19626,0 2.175,0.24386 2.175,0.5371 0,0.2947 0.783,0.70696 1.74,0.91744 0.957,0.21048 1.73998,0.62422 1.73998,0.91744 0,0.29324 0.4727,0.53422 1.0498,0.53422 0.57564,0 1.5544,0.38322 2.17498,0.8521 1.2992,0.98422 8.95516,1.24842 8.95516,0.3092 0,-0.33968 -1.6095,-0.5371 -3.87872,-0.47324 -2.55778,0.0696 -3.95848,-0.1278 -4.10928,-0.58066 -0.1262,-0.37742 -0.82796,-0.68808 -1.55876,-0.68808 -0.73224,0 -1.65588,-0.39192 -2.05318,-0.87098 -0.3973,-0.47904 -1.31078,-0.87098 -2.02998,-0.87098 -0.7192,0 -1.6327,-0.39194 -2.03,-0.871 -0.40164,-0.48484 -1.6675,-0.87098 -2.8565,-0.87098 -1.17158,0 -2.40698,-0.27582 -2.74484,-0.61406 -0.89898,-0.9 -7.45876,-1.5039 -6.92516,-0.63726 m 54.14132,-0.09 c -0.55824,0.1452 -1.015,0.50808 -1.015,0.80276 0,0.29614 -0.78298,0.53856 -1.73998,0.53856 -0.957,0 -1.73998,0.2613 -1.73998,0.58066 0,0.82454 1.18174,0.71276 3.11166,-0.29324 0.9135,-0.47758 2.61,-0.871 3.77,-0.87678 1.15998,0 2.49978,-0.2613 2.97828,-0.57196 0.9077,-0.5879 -3.27264,-0.72582 -5.36498,-0.18"
     id="path1"
     style="stroke-width:1.45082" />
</svg>
